<mxfile host="app.diagrams.net" modified="2023-08-10T01:10:05.813Z" agent="Mozilla/5.0 (Windows NT 10.0; Win64; x64) AppleWebKit/537.36 (KHTML, like Gecko) Chrome/114.0.0.0 Safari/537.36" version="21.6.7" etag="uhwQnFhCNJ70yfgW4gHM" type="github">
  <diagram name="第 1 页" id="_274fDQyHaV6K9V8DBqK">
    <mxGraphModel>
      <root>
        <mxCell id="0" />
        <mxCell id="1" parent="0" />
      </root>
    </mxGraphModel>
  </diagram>
</mxfile>
